<svg width="355" height="71" viewBox="0 0 355 71" fill="none" xmlns="http://www.w3.org/2000/svg">
<g filter="url(#filter0_di_69_10)">
<path d="M4 6C4 3.79086 5.79086 2 8 2H343C345.209 2 347 3.79086 347 6V57C347 59.2091 345.209 61 343 61H8.00001C5.79087 61 4 59.2091 4 57V6Z" fill="#84A394"/>
<path d="M8 3H343C344.657 3 346 4.34315 346 6V57C346 58.6569 344.657 60 343 60H8C6.34315 60 5 58.6568 5 57V6C5 4.34315 6.34315 3 8 3Z" stroke="#385043" stroke-width="2"/>
</g>
<defs>
<filter id="filter0_di_69_10" x="0" y="0" width="355" height="71" filterUnits="userSpaceOnUse" color-interpolation-filters="sRGB">
<feFlood flood-opacity="0" result="BackgroundImageFix"/>
<feColorMatrix in="SourceAlpha" type="matrix" values="0 0 0 0 0 0 0 0 0 0 0 0 0 0 0 0 0 0 127 0" result="hardAlpha"/>
<feOffset dx="2" dy="4"/>
<feGaussianBlur stdDeviation="3"/>
<feComposite in2="hardAlpha" operator="out"/>
<feColorMatrix type="matrix" values="0 0 0 0 0 0 0 0 0 0 0 0 0 0 0 0 0 0 0.58 0"/>
<feBlend mode="normal" in2="BackgroundImageFix" result="effect1_dropShadow_69_10"/>
<feBlend mode="normal" in="SourceGraphic" in2="effect1_dropShadow_69_10" result="shape"/>
<feColorMatrix in="SourceAlpha" type="matrix" values="0 0 0 0 0 0 0 0 0 0 0 0 0 0 0 0 0 0 127 0" result="hardAlpha"/>
<feOffset dx="1" dy="2"/>
<feGaussianBlur stdDeviation="2"/>
<feComposite in2="hardAlpha" operator="arithmetic" k2="-1" k3="1"/>
<feColorMatrix type="matrix" values="0 0 0 0 1 0 0 0 0 1 0 0 0 0 1 0 0 0 0.39 0"/>
<feBlend mode="normal" in2="shape" result="effect2_innerShadow_69_10"/>
</filter>
</defs>
</svg>
