<svg width="144" height="47" viewBox="0 0 144 47" fill="none" xmlns="http://www.w3.org/2000/svg">
<g filter="url(#filter0_di_69_7)">
<path d="M30.3569 36C63.4842 36 97.7829 36 131.001 36C133.21 36 135 34.2108 135 32.0017C135 23.2031 135 12.6277 135 6.994C135 4.78487 133.209 3 131 3H30.3569L6 20.1346C6 20.1346 20.845 29.8042 30.3569 36Z" fill="#FCA8A8"/>
<path d="M30.3569 36C63.4842 36 97.7829 36 131.001 36C133.21 36 135 34.2108 135 32.0017C135 23.2031 135 12.6277 135 6.994C135 4.78487 133.209 3 131 3H30.3569M30.3569 36C20.845 29.8042 15.512 26.3304 6 20.1346M30.3569 36C20.845 29.8042 6 20.1346 6 20.1346M30.3569 3C20.845 9.69148 15.512 13.4431 6 20.1346M30.3569 3L6 20.1346" stroke="#B14F4F" stroke-width="2"/>
</g>
<defs>
<filter id="filter0_di_69_7" x="0.216797" y="0" width="143.783" height="47" filterUnits="userSpaceOnUse" color-interpolation-filters="sRGB">
<feFlood flood-opacity="0" result="BackgroundImageFix"/>
<feColorMatrix in="SourceAlpha" type="matrix" values="0 0 0 0 0 0 0 0 0 0 0 0 0 0 0 0 0 0 127 0" result="hardAlpha"/>
<feOffset dx="2" dy="4"/>
<feGaussianBlur stdDeviation="3"/>
<feComposite in2="hardAlpha" operator="out"/>
<feColorMatrix type="matrix" values="0 0 0 0 0 0 0 0 0 0 0 0 0 0 0 0 0 0 0.58 0"/>
<feBlend mode="normal" in2="BackgroundImageFix" result="effect1_dropShadow_69_7"/>
<feBlend mode="normal" in="SourceGraphic" in2="effect1_dropShadow_69_7" result="shape"/>
<feColorMatrix in="SourceAlpha" type="matrix" values="0 0 0 0 0 0 0 0 0 0 0 0 0 0 0 0 0 0 127 0" result="hardAlpha"/>
<feOffset dx="1" dy="2"/>
<feGaussianBlur stdDeviation="2"/>
<feComposite in2="hardAlpha" operator="arithmetic" k2="-1" k3="1"/>
<feColorMatrix type="matrix" values="0 0 0 0 1 0 0 0 0 1 0 0 0 0 1 0 0 0 0.39 0"/>
<feBlend mode="normal" in2="shape" result="effect2_innerShadow_69_7"/>
</filter>
</defs>
</svg>
